<?xml version="1.0" standalone="no"?>
<!DOCTYPE svg PUBLIC "-//W3C//DTD SVG 20010904//EN"
 "http://www.w3.org/TR/2001/REC-SVG-20010904/DTD/svg10.dtd">
<svg version="1.0" xmlns="http://www.w3.org/2000/svg"
 width="700.000000pt" height="700.000000pt" viewBox="0 0 700.000000 700.000000"
 preserveAspectRatio="xMidYMid meet">
<metadata>
Created by potrace 1.14, written by Peter Selinger 2001-2017
</metadata>
<g transform="translate(0.000000,700.000000) scale(0.100000,-0.100000)"
fill="#000000" stroke="none">
<path d="M1030 6803 c-190 -110 -493 -284 -673 -388 -243 -140 -333 -197 -343
-217 -12 -23 -14 -364 -14 -2272 l0 -2246 27 -29 c42 -45 2620 -1525 2663
-1529 31 -3 194 88 1340 748 718 413 1316 762 1330 776 l25 24 5 732 5 732
566 325 c311 179 595 343 631 365 36 21 71 49 77 63 8 17 11 251 11 799 l0
776 -29 26 c-16 15 -201 126 -412 247 -211 121 -507 291 -659 378 -232 134
-280 158 -306 154 -17 -3 -206 -106 -420 -230 -214 -123 -508 -293 -654 -376
-146 -84 -276 -163 -290 -177 l-25 -24 -5 -732 -5 -732 -535 -308 -535 -308
-5 1410 c-5 1393 -5 1410 -25 1429 -39 38 -1329 773 -1365 778 -31 4 -75 -19
-380 -194z m1222 -524 c119 -68 216 -128 215 -132 -2 -8 -1053 -617 -1065
-617 -18 0 -1071 615 -1064 622 5 5 246 145 536 312 l528 304 317 -182 c174
-101 414 -238 533 -307z m3574 -556 c447 -257 530 -309 516 -318 -9 -6 -250
-145 -535 -309 -358 -207 -523 -296 -535 -291 -42 16 -1062 608 -1057 613 15
15 1052 610 1064 611 8 1 254 -137 547 -306z m-4784 -237 l247 -141 3 -1465
c3 -1376 4 -1467 20 -1490 11 -14 257 -160 611 -360 325 -184 609 -345 630
-357 l37 -22 0 -616 c0 -338 -3 -615 -7 -615 -4 0 -537 305 -1185 678 l-1178
677 0 2092 0 2092 288 -166 c158 -91 398 -229 534 -307z m1536 -2232 c-13 -12
-1055 -614 -1064 -614 -2 0 -3 608 -2 1352 l3 1351 535 308 535 308 3 -1346
c2 -1069 -1 -1350 -10 -1359z m3885 745 c-5 -4 -51 -32 -103 -62 -105 -60
-951 -547 -962 -554 -5 -2 -8 272 -8 610 l0 615 538 309 537 310 3 -611 c1
-335 -1 -613 -5 -617z m-2100 1077 c128 -74 360 -208 517 -298 l285 -164 3
-612 c1 -337 -1 -612 -5 -612 -5 0 -244 137 -533 303 l-525 303 -3 613 c-2
551 -1 613 13 607 9 -3 120 -66 248 -140z m171 -1575 c464 -267 526 -306 511
-317 -37 -27 -2339 -1337 -2350 -1337 -14 0 -1065 594 -1065 602 0 11 2344
1360 2360 1358 9 -1 253 -139 544 -306z m636 -1113 l0 -613 -108 -61 c-59 -34
-588 -339 -1177 -678 -588 -339 -1073 -616 -1077 -616 -5 0 -7 278 -6 617 l3
618 1175 672 c646 369 1178 672 1183 672 4 1 7 -275 7 -611z"/>
</g>
</svg>
